<svg xmlns="http://www.w3.org/2000/svg" viewBox="0 0 480 320" preserveAspectRatio="xMidYMid slice">
  <defs>
    <linearGradient id="sky" x1="0" y1="0" x2="0" y2="1">
      <stop offset="0" stop-color="#0b1026"/>
      <stop offset="0.45" stop-color="#3b1d5e"/>
      <stop offset="0.75" stop-color="#b8406a"/>
      <stop offset="1" stop-color="#ff9a52"/>
    </linearGradient>
    <radialGradient id="sun" cx="0.5" cy="0.5" r="0.5" fx="0.42" fy="0.38">
      <stop offset="0%" stop-color="#fffbe0"/>
      <stop offset="55%" stop-color="#ffd36b"/>
      <stop offset="100%" stop-color="#ff7a3d"/>
    </radialGradient>
    <linearGradient id="sea" gradientUnits="userSpaceOnUse" x1="0" y1="212" x2="0" y2="320">
      <stop offset="0" style="stop-color: #6b2f5c"/>
      <stop offset="1" style="stop-color: #0d1330"/>
    </linearGradient>
    <linearGradient id="far" gradientUnits="userSpaceOnUse" x1="0" y1="140" x2="0" y2="212">
      <stop offset="0" stop-color="#7a4a8c"/>
      <stop offset="1" stop-color="#c86a7a"/>
    </linearGradient>
    <linearGradient id="near" x1="0%" y1="0%" x2="0%" y2="100%">
      <stop offset="0" stop-color="#2b1840"/>
      <stop offset="1" stop-color="#150c24"/>
    </linearGradient>
    <linearGradient id="beam" x1="0" y1="0" x2="1" y2="0" gradientTransform="rotate(8)">
      <stop offset="0" stop-color="#fff6c8"/>
      <stop offset="1" stop-color="#8a3d6e"/>
    </linearGradient>
    <linearGradient id="stripes" gradientUnits="userSpaceOnUse" x1="0" y1="0" x2="0" y2="9" spreadMethod="repeat">
      <stop offset="0.5" stop-color="#f4efe6"/>
      <stop offset="0.5" stop-color="#c8323c"/>
    </linearGradient>
    <radialGradient id="moonlight" cx="0.3" cy="0.4" r="0.7" gradientTransform="translate(0.3 0.4) rotate(-30) scale(1 0.6) translate(-0.3 -0.4)">
      <stop offset="0" stop-color="#fffdf0"/>
      <stop offset="1" stop-color="#d8cca0"/>
    </radialGradient>
    <clipPath id="glitter">
      <polygon points="240,212 196,320 284,320"/>
    </clipPath>
  </defs>
  <rect width="480" height="320" fill="url(#sky)"/>
  <g fill="#fff4d6" fill-rule="evenodd" opacity="0.85">
    <polygon points="0,-3.95 2.32,3.2 -3.76,-1.22 3.76,-1.22 -2.32,3.2" transform="translate(128.04 78.47) rotate(62.79)"/>
    <polygon points="0,-2.67 1.57,2.16 -2.54,-0.83 2.54,-0.83 -1.57,2.16" transform="translate(272.7 25.31) rotate(71.56)"/>
    <polygon points="0,-4.07 2.39,3.29 -3.87,-1.26 3.87,-1.26 -2.39,3.29" transform="translate(55.7 42.38) rotate(32.36)"/>
    <polygon points="0,-3.96 2.33,3.21 -3.77,-1.22 3.77,-1.22 -2.33,3.21" transform="translate(104.4 42.13) rotate(24.16)"/>
    <polygon points="0,-3.69 2.17,2.99 -3.51,-1.14 3.51,-1.14 -2.17,2.99" transform="translate(205.45 77.56) rotate(35.43)"/>
    <polygon points="0,-1.69 0.99,1.37 -1.61,-0.52 1.61,-0.52 -0.99,1.37" transform="translate(45.64 71.35) rotate(6.81)"/>
    <polygon points="0,-2.34 1.37,1.89 -2.22,-0.72 2.22,-0.72 -1.37,1.89" transform="translate(95.94 85.05) rotate(49.7)"/>
    <polygon points="0,-1.66 0.98,1.34 -1.58,-0.51 1.58,-0.51 -0.98,1.34" transform="translate(83.47 19.42) rotate(50.82)"/>
    <polygon points="0,-1.96 1.15,1.58 -1.86,-0.6 1.86,-0.6 -1.15,1.58" transform="translate(305.92 40.29) rotate(46.57)"/>
    <polygon points="0,-2 1.17,1.62 -1.9,-0.62 1.9,-0.62 -1.17,1.62" transform="translate(285.08 57) rotate(45.98)"/>
    <polygon points="0,-2.03 1.19,1.64 -1.93,-0.63 1.93,-0.63 -1.19,1.64" transform="translate(264.73 55.35) rotate(66.88)"/>
    <polygon points="0,-3.18 1.87,2.57 -3.02,-0.98 3.02,-0.98 -1.87,2.57" transform="translate(167.29 19.26) rotate(37.4)"/>
    <polygon points="0,-3.78 2.22,3.06 -3.6,-1.17 3.6,-1.17 -2.22,3.06" transform="translate(209.63 119.16) rotate(8.27)"/>
    <polygon points="0,-3.29 1.94,2.66 -3.13,-1.02 3.13,-1.02 -1.94,2.66" transform="translate(416.51 6.23) rotate(22.7)"/>
    <polygon points="0,-2.98 1.75,2.41 -2.83,-0.92 2.83,-0.92 -1.75,2.41" transform="translate(345.16 114.59) rotate(54.93)"/>
    <polygon points="0,-1.91 1.12,1.54 -1.81,-0.59 1.81,-0.59 -1.12,1.54" transform="translate(33.11 82.08) rotate(32.78)"/>
    <polygon points="0,-3.54 2.08,2.87 -3.37,-1.09 3.37,-1.09 -2.08,2.87" transform="translate(162.09 14.33) rotate(6.71)"/>
    <polygon points="0,-3.32 1.95,2.69 -3.16,-1.03 3.16,-1.03 -1.95,2.69" transform="translate(126.88 15.79) rotate(21.67)"/>
    <polygon points="0,-2.17 1.28,1.76 -2.06,-0.67 2.06,-0.67 -1.28,1.76" transform="translate(28.48 9.09) rotate(36.48)"/>
    <polygon points="0,-3.33 1.96,2.7 -3.17,-1.03 3.17,-1.03 -1.96,2.7" transform="translate(13.61 8.71) rotate(37.97)"/>
    <polygon points="0,-1.93 1.13,1.56 -1.83,-0.6 1.83,-0.6 -1.13,1.56" transform="translate(70.43 41.58) rotate(19.8)"/>
    <polygon points="0,-2.11 1.24,1.71 -2.01,-0.65 2.01,-0.65 -1.24,1.71" transform="translate(187.27 30.85) rotate(16.3)"/>
    <polygon points="0,-3.9 2.29,3.16 -3.71,-1.21 3.71,-1.21 -2.29,3.16" transform="translate(147.26 69.27) rotate(46.65)"/>
    <polygon points="0,-2.09 1.23,1.69 -1.99,-0.65 1.99,-0.65 -1.23,1.69" transform="translate(215.22 6.37) rotate(45.66)"/>
    <polygon points="0,-3.96 2.33,3.21 -3.77,-1.22 3.77,-1.22 -2.33,3.21" transform="translate(195.14 102.57) rotate(21.35)"/>
    <polygon points="0,-3.36 1.97,2.72 -3.19,-1.04 3.19,-1.04 -1.97,2.72" transform="translate(176.4 40) rotate(7.1)"/>
  </g>
  <g fill="#f7f2dc">
    <circle cx="398" cy="66" r="52" opacity="0.05"/>
    <circle cx="398" cy="66" r="46" opacity="0.05"/>
    <circle cx="398" cy="66" r="41" opacity="0.05"/>
    <circle cx="398" cy="66" r="37" opacity="0.05"/>
  </g>
  <path d="M392 36a30 30 0 1 0 34 44 24 24 0 1 1-34-44z" fill="url(#moonlight)"/>
  <g fill="#ffb86b">
    <circle cx="240" cy="206" r="92" opacity="0.07"/>
    <circle cx="240" cy="206" r="80" opacity="0.07"/>
    <circle cx="240" cy="206" r="70" opacity="0.07"/>
    <circle cx="240" cy="206" r="61" opacity="0.07"/>
    <circle cx="240" cy="206" r="53" opacity="0.07"/>
    <circle cx="240" cy="206" r="46" opacity="0.07"/>
  </g>
  <circle cx="240" cy="206" r="40" fill="url(#sun)"/>
  <g opacity="0.7">
    <path fill="url(#far)" d="M0 212V170q30-26 62-8t58 4 70-30 64 18c20 10 38 12 60-4s50-28 82-6 50 16 84 2V212z"/>
  </g>
  <rect y="212" width="480" height="108" fill="url(#sea)"/>
  <g clip-path="url(#glitter)" stroke="#ffd98a" stroke-linecap="round">
    <line x1="150" y1="216" x2="330" y2="216" stroke-width="0.9" stroke-dasharray="4.67 3" stroke-dashoffset="0"/>
    <line x1="150" y1="220.33" x2="330" y2="220.33" stroke-width="1.01" stroke-dasharray="5.39 5" stroke-dashoffset="3.7"/>
    <line x1="150" y1="225.03" x2="330" y2="225.03" stroke-width="1.13" stroke-dasharray="6.17 7" stroke-dashoffset="7.4"/>
    <line x1="150" y1="230.11" x2="330" y2="230.11" stroke-width="1.25" stroke-dasharray="7.02 3" stroke-dashoffset="11.1"/>
    <line x1="150" y1="235.62" x2="330" y2="235.62" stroke-width="1.39" stroke-dasharray="7.94 5" stroke-dashoffset="14.8"/>
    <line x1="150" y1="241.59" x2="330" y2="241.59" stroke-width="1.54" stroke-dasharray="8.93 7" stroke-dashoffset="18.5"/>
    <line x1="150" y1="248.06" x2="330" y2="248.06" stroke-width="1.7" stroke-dasharray="10.01 3" stroke-dashoffset="22.2"/>
    <line x1="150" y1="255.06" x2="330" y2="255.06" stroke-width="1.88" stroke-dasharray="11.18 5" stroke-dashoffset="25.9"/>
    <line x1="150" y1="262.65" x2="330" y2="262.65" stroke-width="2.07" stroke-dasharray="12.44 7" stroke-dashoffset="29.6"/>
    <line x1="150" y1="270.87" x2="330" y2="270.87" stroke-width="2.27" stroke-dasharray="13.81 3" stroke-dashoffset="33.3"/>
    <line x1="150" y1="279.78" x2="330" y2="279.78" stroke-width="2.49" stroke-dasharray="15.3 5" stroke-dashoffset="37"/>
    <line x1="150" y1="289.43" x2="330" y2="289.43" stroke-width="2.74" stroke-dasharray="16.9 7" stroke-dashoffset="40.7"/>
    <line x1="150" y1="299.88" x2="330" y2="299.88" stroke-width="3" stroke-dasharray="18.65 3" stroke-dashoffset="44.4"/>
    <line x1="150" y1="311.2" x2="330" y2="311.2" stroke-width="3.28" stroke-dasharray="20.53 5" stroke-dashoffset="48.1"/>
  </g>
  <path fill="url(#near)" d="M300 320V236c18-6 30-18 52-20s36 6 54 2 40-22 74-18V320z"/>
  <g transform="translate(408 150)">
    <polygon points="4,0 22,0 26,68 0,68" fill="url(#stripes)" stroke="#1a0f2a" stroke-width="1" stroke-linejoin="round"/>
    <rect x="-2" y="-6" width="30" height="6" rx="2" fill="#1a0f2a"/>
    <path d="M3 -6 L6 -20 H20 L23 -6 Z" fill="#ffe9a8" stroke="#1a0f2a" stroke-width="1.2" stroke-linejoin="bevel"/>
    <path d="M13-20a8 8 0 0 1-8-2h16a8 8 0 0 1-8 2" fill="#1a0f2a"/>
    <path d="M13 -13 L-160 -34 L-160 2 Z" fill="url(#beam)" opacity="0.16"/>
  </g>
  <g transform="translate(118 222) scale(0.9)">
    <path d="M-36 0h72l-10 12h-52z" fill="#1a0f2a"/>
    <line x1="0" y1="0" x2="0" y2="-70" stroke="#1a0f2a" stroke-width="2" stroke-linecap="square"/>
    <polygon points="2,-68 2,-4 34,-4" fill="#f6d9c4" transform="skewX(-6)"/>
    <polygon points="-2,-60 -2,-4 -28,-4" style="fill: #e9b8a8; stroke: #1a0f2a; stroke-width: 0.8"/>
    <polyline points="0,-70 10,-66 0,-62" fill="#c8323c"/>
  </g>
  <g transform="matrix(0.9 0 0 -0.45 118 236)" opacity="0.3">
    <polygon points="2,-68 2,-4 34,-4" fill="#f6d9c4" transform="skewX(-6)"/>
    <polygon points="-2,-60 -2,-4 -28,-4" fill="#e9b8a8"/>
  </g>
  <g fill="none" stroke="#1a0f2a" stroke-width="1" stroke-linecap="round" stroke-linejoin="round">
    <path d="M-10 0a7 5 0 0 1 10 0 7 5 0 0 1 10 0" transform="translate(170 96) rotate(-8) scale(1.7)"/>
    <path d="M-10 0a7 5 0 0 1 10 0 7 5 0 0 1 10 0" transform="translate(196 84) rotate(6) scale(1.36)"/>
    <path d="M-10 0a7 5 0 0 1 10 0 7 5 0 0 1 10 0" transform="translate(214 104) rotate(-4) scale(1.1)"/>
    <path d="M-10 0a7 5 0 0 1 10 0 7 5 0 0 1 10 0" transform="translate(300 70) rotate(10) scale(1.53)"/>
    <path d="M-10 0a7 5 0 0 1 10 0 7 5 0 0 1 10 0" transform="translate(322 88) rotate(-12) scale(1.02)"/>
  </g>
  <ellipse cx="200" cy="262" rx="6" ry="3" fill="#c8323c"/>
  <ellipse cx="268" cy="286" rx="8" ry="4" fill="#f4efe6" transform="skewY(4)"/>
  <rect x="6" y="6" width="468" height="308" rx="14" fill="none" stroke="#f7f2dc" stroke-width="3"/>
  <rect x="13" y="13" width="454" height="294" rx="9" ry="9" fill="none" stroke="#f7f2dc" stroke-width="0.8" stroke-dasharray="1 5" stroke-linecap="round" opacity="0.8"/>
</svg>
